<svg xmlns="http://www.w3.org/2000/svg" width="960" height="719" viewBox="0 0 960 719" fill="none">
  <path opacity="0.7" d="M808.799 401.23C651.54 401.23 511.563 450.387 511.563 346.653C511.524 332.555 516.808 318.962 526.357 308.589C543.894 328.801 587.131 368.586 698.539 368.586C851.015 368.586 924.033 277.284 924.033 182.794C924.033 118.654 886.281 52.1541 808.353 20.5939C807.332 20.1476 796.683 16.9596 796.045 16.7684C764.937 6.01653 732.217 0.668621 699.304 0.956369C545.935 1.2114 473.874 93.3418 475.787 183.878C475.624 222.643 488.342 260.365 511.945 291.119C513.667 293.415 515.516 295.583 517.43 297.495C408.572 360.488 433.188 537.863 666.08 503.561C784.247 486.156 910.641 467.411 910.641 581.091C910.641 659.705 832.522 711.03 762.501 711.03C637.957 711.03 557.095 621.769 421.709 539.648C398.178 525.494 373.243 511.467 345.949 498.27C321.263 486.506 295.672 476.741 269.424 469.068C184.226 443.565 111.719 460.525 49.4144 489.28C117.331 383.059 434.846 339.257 434.846 154.805C434.846 52.7917 333.96 0 219.619 0C123.516 0 32.1963 51.0065 32.1963 144.412C32.1963 204.281 75.1141 240.049 123.516 240.049C139.902 240.158 155.911 235.142 169.304 225.704C169.872 225.276 170.332 224.722 170.65 224.086C170.967 223.45 171.132 222.748 171.132 222.038C171.132 221.327 170.967 220.626 170.65 219.989C170.332 219.353 169.872 218.799 169.304 218.371C142.265 198.351 126.705 161.946 126.705 117.315C126.705 50.2414 179.125 14.3456 229.185 14.3456C275.993 14.3456 322.737 47.181 322.737 118.08C322.737 322.552 46.9911 374.069 0.055708 530.531C-0.0287616 530.836 -0.0169326 531.159 0.0895708 531.456C0.196074 531.753 0.392035 532.011 0.65055 532.192C0.909066 532.374 1.21747 532.471 1.53343 532.47C1.84939 532.47 2.15742 532.371 2.41524 532.189C89.3351 472.83 219.237 517.588 309.026 576.118L315.403 580.007C480.251 685.973 628.837 719 750.002 719C884.942 719 960 631.651 960 538.82C960 444.904 898.142 401.23 808.799 401.23ZM701.855 9.94626C775.702 9.94626 811.414 94.107 811.414 183.049C811.414 269.569 774.108 360.935 701.855 360.935C627.945 360.935 590.639 273.586 590.639 183.049C590.575 97.2949 627.945 9.94626 701.855 9.94626Z" fill="url(#paint0_linear_1_84)"/>
  <defs>
    <linearGradient id="paint0_linear_1_84" x1="480" y1="794" x2="480" y2="-111.5" gradientUnits="userSpaceOnUse">
      <stop stop-color="#4F1941"/>
      <stop offset="1" stop-color="#4F1941" stop-opacity="0"/>
    </linearGradient>
  </defs>
</svg>