<svg xmlns="http://www.w3.org/2000/svg" width="100" height="100" viewBox="0 0 100 100" fill="none">
  <g clip-path="url(#clip0_1_333)">
    <path d="M50 100C77.6142 100 100 77.6142 100 50C100 22.3858 77.6142 0 50 0C22.3858 0 0 22.3858 0 50C0 77.6142 22.3858 100 50 100Z" fill="#541036"/>
    <path d="M65.7658 54.5493C58.2216 54.5493 51.5046 56.9024 51.5046 51.9252C51.5083 51.2537 51.7626 50.6079 52.2176 50.114C53.059 51.0838 55.1341 52.9663 60.482 52.9663C67.7981 52.9663 71.2992 48.5809 71.2992 44.0459C71.2725 42.3395 70.7276 40.6817 69.7368 39.2923C68.746 37.9028 67.3561 36.8475 65.7516 36.2663L65.1597 36.081C63.6668 35.5663 62.0968 35.3107 60.5177 35.3251C53.166 35.3251 49.7005 39.7461 49.7789 44.0886C49.7725 45.9468 50.3818 47.7547 51.5117 49.2298C51.5973 49.3439 51.6828 49.4509 51.7755 49.5578C46.5559 52.5741 47.7325 61.0881 58.9062 59.4409C64.6107 58.6066 70.636 57.7082 70.636 63.1631C70.636 66.9352 66.8853 69.3953 63.5054 69.3953C57.5371 69.3953 53.658 65.1169 47.162 61.1736C46.0354 60.4962 44.8374 59.8188 43.5325 59.1842C42.3446 58.6147 41.1145 58.1379 39.8531 57.7581C36.3398 56.7392 32.5693 57.1094 29.3212 58.792C32.5941 53.6794 47.8608 51.5829 47.8608 42.7267C47.8608 37.828 43.0191 35.3037 37.5357 35.3037C32.9221 35.3037 28.5439 37.7495 28.5439 42.2347C28.5108 42.8284 28.5997 43.4226 28.8052 43.9805C29.0107 44.5385 29.3284 45.0484 29.7387 45.4788C30.149 45.9091 30.6432 46.2508 31.1907 46.4826C31.7383 46.7145 32.3275 46.8316 32.9221 46.8268C33.7107 46.8241 34.4786 46.5747 35.1184 46.1138C35.1463 46.094 35.1691 46.0678 35.1849 46.0374C35.2006 46.007 35.2088 45.9733 35.2088 45.939C35.2088 45.9048 35.2006 45.8711 35.1849 45.8407C35.1691 45.8103 35.1463 45.7841 35.1184 45.7644C33.8135 44.7946 33.0719 43.0404 33.0719 40.9084C33.0544 40.2593 33.1687 39.6133 33.4078 39.0096C33.6469 38.4059 34.0059 37.8568 34.463 37.3957C34.9202 36.9345 35.4661 36.5708 36.0677 36.3264C36.6693 36.0821 37.3142 35.9622 37.9635 35.974C40.2096 35.974 42.4558 37.5499 42.4558 40.9654C42.4558 50.7772 29.2285 53.2515 26.9823 60.7529C26.9767 60.7679 26.9762 60.7842 26.981 60.7994C26.9858 60.8146 26.9955 60.8278 27.0086 60.8368C27.0218 60.8459 27.0376 60.8502 27.0535 60.8492C27.0694 60.8482 27.0845 60.842 27.0964 60.8314C31.2607 57.9791 37.4929 60.1183 41.7998 62.9706L42.0993 63.156C50.0071 68.2401 57.1306 69.8231 62.9492 69.8231C69.4167 69.8231 73.0177 65.6374 73.0177 61.1808C73.0177 56.7241 70.0513 54.5493 65.7658 54.5493ZM60.6389 35.7743C64.2042 35.7743 65.8942 39.8103 65.8942 44.0744C65.8942 48.2315 64.1044 52.6311 60.6389 52.6311C57.1734 52.6311 55.3052 48.4169 55.3052 44.0744C55.3052 39.96 57.095 35.7743 60.6389 35.7743Z" fill="#F9F7EF"/>
    <path d="M72.4187 30.7116C72.1245 30.4704 71.7732 30.309 71.3986 30.2428C71.0239 30.1766 70.6386 30.2079 70.2795 30.3337C69.9159 30.4536 69.5885 30.6635 69.3279 30.9441C69.0673 31.2246 68.882 31.5666 68.7892 31.9381C68.565 32.9558 68.0663 33.8925 67.3472 34.6468C66.6282 35.401 65.7163 35.9439 64.7105 36.2165V36.2664L64.8531 36.5302C65.9537 36.4656 67.0347 36.2098 68.0476 35.7744C69.1031 35.3477 70.0463 34.684 70.8042 33.8345C71.5621 32.9851 72.1146 31.9727 72.4187 30.8756C72.4356 30.8516 72.4446 30.823 72.4446 30.7936C72.4446 30.7643 72.4356 30.7356 72.4187 30.7116Z" fill="#F9F7EF"/>
  </g>
  <defs>
    <clipPath id="clip0_1_333">
      <rect width="100" height="100" fill="white"/>
    </clipPath>
  </defs>
</svg>