<svg xmlns="http://www.w3.org/2000/svg" width="151" height="70" viewBox="0 0 151 70" fill="none">
  <path d="M51.407 49.4104C51.407 45.266 54.8067 43.7921 59.1219 42.3545C62.9356 41.0853 66.5469 39.5249 66.4825 35.6717C66.4411 33.5791 64.7803 32.5555 63.0782 32.5555C61.2381 32.5555 59.4301 33.7019 59.4301 35.9174C59.4166 36.5417 59.579 37.1574 59.8991 37.6957C60.2192 38.2339 60.6844 38.6735 61.2427 38.9654C61.2653 38.9821 61.2841 39.0034 61.298 39.0279C61.3118 39.0523 61.3202 39.0793 61.3228 39.1072C61.3254 39.135 61.3221 39.1631 61.3131 39.1896C61.304 39.2161 61.2894 39.2405 61.2703 39.2611C60.9215 39.6173 60.5008 39.897 60.0356 40.082C59.5703 40.2669 59.0709 40.353 58.5698 40.3347C56.7021 40.3347 54.8343 39.2247 54.8343 37.1775C54.8343 33.6883 58.4456 31.9277 62.3421 31.9277C66.9885 31.9277 71.5061 34.4253 71.5061 39.4294V49.4104C71.4922 51.0249 71.7888 52.6274 72.3802 54.1325C72.3965 54.1662 72.4024 54.204 72.3972 54.241C72.392 54.2781 72.3759 54.3128 72.3509 54.3409C72.3259 54.369 72.2932 54.3893 72.2566 54.3991C72.2201 54.4089 72.1815 54.408 72.1456 54.3963C65.8338 52.4902 62.0661 55.2334 58.51 55.1833C54.7239 55.1515 51.407 53.0998 51.407 49.4104ZM65.7142 39.5659C63.0184 42.6002 57.0057 43.874 57.0471 48.8372C57.0977 51.4348 58.7216 52.795 60.9804 53.2499C61.5572 53.3617 62.1518 53.3455 62.7214 53.2024C63.291 53.0594 63.8214 52.793 64.2743 52.4226C64.7272 52.0523 65.0913 51.5871 65.3403 51.0606C65.5893 50.5342 65.717 49.9597 65.7142 49.3785V39.5659Z" fill="white"/>
  <path d="M80.6654 49.0828V36.5316C80.6659 35.6559 80.9958 34.8116 81.5911 34.1633C82.1863 33.5149 83.0043 33.1089 83.8857 33.0241C83.9645 33.0184 84.0396 32.9886 84.1005 32.9389C84.1615 32.8892 84.2054 32.822 84.2261 32.7466C84.242 32.6933 84.245 32.637 84.2348 32.5823C84.2246 32.5276 84.2016 32.476 84.1676 32.4318C84.1335 32.3875 84.0895 32.3518 84.0389 32.3274C83.9884 32.3031 83.9327 32.2909 83.8765 32.2917H80.6562V26.3777C80.6623 26.3482 80.6563 26.3174 80.6395 26.2922C80.6227 26.2671 80.5964 26.2495 80.5665 26.2435C80.5366 26.2375 80.5055 26.2434 80.4801 26.2601C80.4546 26.2767 80.4369 26.3027 80.4308 26.3322C79.832 27.7973 78.8865 29.0989 77.6738 30.1279C76.4611 31.157 75.0165 31.8834 73.4612 32.2462C73.4285 32.2519 73.3984 32.2675 73.375 32.2908C73.3516 32.3141 73.3361 32.344 73.3306 32.3764C73.325 32.4088 73.3297 32.4421 73.3441 32.4717C73.3584 32.5013 73.3817 32.5258 73.4106 32.5419C73.8379 32.7672 74.1934 33.1057 74.4371 33.5195C74.6809 33.9333 74.8033 34.406 74.7908 34.8847V49.0419C74.7908 53.3455 78.1536 55.1469 83.6925 55.2652C83.7206 55.2659 83.7481 55.2571 83.7705 55.2403C83.7929 55.2235 83.8089 55.1997 83.8158 55.1728C83.8228 55.1458 83.8203 55.1174 83.8087 55.092C83.7972 55.0667 83.7773 55.0459 83.7523 55.0332C82.2342 54.2735 80.6654 52.9087 80.6654 49.0828Z" fill="white"/>
  <path d="M101.082 54.5782C101.024 54.5776 100.968 54.563 100.917 54.5356C100.867 54.5081 100.824 54.4688 100.793 54.4211C100.761 54.3734 100.742 54.3188 100.737 54.2621C100.732 54.2054 100.742 54.1483 100.764 54.096C101.731 51.8988 101.62 50.8615 101.62 48.182V38.5423C101.62 36.204 100.875 35.0576 99.78 35.0576C98.0365 35.0576 95.2808 38.2921 93.5879 43.7011C93.1457 45.1527 92.9255 46.6615 92.9346 48.1775C92.9346 50.8661 92.9346 51.9033 93.8225 54.0915C93.8399 54.143 93.8447 54.1979 93.8366 54.2517C93.8285 54.3054 93.8077 54.3565 93.7759 54.4008C93.7441 54.4452 93.7021 54.4814 93.6535 54.5067C93.6048 54.532 93.5508 54.5456 93.4959 54.5464H86.5953C86.5378 54.5454 86.4814 54.5306 86.4309 54.5032C86.3805 54.4758 86.3375 54.4367 86.3058 54.3892C86.2741 54.3417 86.2546 54.2873 86.2489 54.2307C86.2432 54.174 86.2516 54.1169 86.2733 54.0642C87.244 51.8669 87.1336 50.8297 87.1336 48.1502V32.8421C87.2834 31.2626 86.8948 29.6788 86.0295 28.3429C85.9974 28.2961 85.9781 28.2419 85.9735 28.1855C85.9689 28.1291 85.9791 28.0725 86.0032 28.0212C86.0273 27.9699 86.0644 27.9256 86.1109 27.8927C86.1575 27.8598 86.2118 27.8394 86.2687 27.8334C88.419 27.571 90.5127 26.9689 92.47 26.0501C92.5209 26.0242 92.5776 26.0117 92.6348 26.0139C92.6919 26.0161 92.7476 26.0329 92.7962 26.0627C92.8448 26.0925 92.8849 26.1342 92.9123 26.1838C92.9398 26.2334 92.9539 26.2893 92.953 26.3458V44.2652C94.3332 39.0563 97.9721 31.9232 102.701 31.9232C106.382 31.9232 107.509 35.6126 107.467 38.8107L107.426 43.0778V48.1775C107.426 50.8661 107.426 51.9033 108.314 54.0915C108.331 54.1427 108.336 54.1972 108.328 54.2506C108.32 54.304 108.3 54.3548 108.268 54.3991C108.237 54.4433 108.196 54.4796 108.148 54.5052C108.1 54.5308 108.046 54.5449 107.992 54.5464L101.082 54.5782Z" fill="white"/>
  <path d="M110.301 43.9967C110.301 38.0509 114.865 32.3098 122.262 32.0641C127.99 31.8594 130.727 34.8528 130.81 38.01C130.892 42.1497 126.577 44.9793 121.31 44.9793C119.655 44.9912 118.017 44.6563 116.502 43.9967C116.962 48.4277 119.571 52.4037 124.088 52.4037C127.161 52.4037 129.917 49.6741 131.132 46.3123C131.142 46.2816 131.159 46.2539 131.182 46.2313C131.206 46.2088 131.234 46.1921 131.265 46.1827C131.296 46.1733 131.329 46.1715 131.361 46.1775C131.393 46.1834 131.423 46.1969 131.449 46.2167C131.481 46.2397 131.505 46.2712 131.519 46.3076C131.533 46.3439 131.536 46.3835 131.527 46.4214C131.081 48.8675 129.789 51.0841 127.872 52.6917C125.956 54.2993 123.533 55.1978 121.02 55.2333C113.871 55.2333 110.301 49.6559 110.301 43.9967ZM125.855 37.6005C125.938 34.5207 124.475 32.5964 122.662 32.5964C119.12 32.5964 117.031 36.5679 116.544 40.5484C116.484 41.0107 116.523 41.4803 116.658 41.9266C116.794 42.3728 117.024 42.7858 117.332 43.1383C117.64 43.4908 118.021 43.775 118.448 43.9723C118.875 44.1697 119.339 44.2756 119.81 44.2833H119.842C123.408 44.2651 125.772 41.4946 125.855 37.6005Z" fill="white"/>
  <path d="M151.001 35.508C150.986 36.5581 150.558 37.5612 149.807 38.3038C149.056 39.0464 148.042 39.4699 146.98 39.484C146.5 39.4792 146.027 39.3639 145.6 39.1474C145.568 39.1306 145.539 39.107 145.518 39.0781C145.496 39.0492 145.481 39.0159 145.474 38.9805C145.467 38.9452 145.468 38.9087 145.477 38.8738C145.486 38.8389 145.503 38.8065 145.526 38.7789C145.941 38.223 146.163 37.5498 146.161 36.8591C146.161 35.467 145.374 34.5208 144.298 34.5208C142.182 34.5208 140.024 38.9517 140.024 45.0204V48.2048C140.024 50.9025 140.024 51.9352 140.921 54.1643C140.946 54.213 140.958 54.2672 140.955 54.3216C140.952 54.3761 140.935 54.4288 140.905 54.4747C140.875 54.5206 140.834 54.5581 140.785 54.5834C140.737 54.6088 140.682 54.6211 140.627 54.6192H133.625C133.571 54.6186 133.518 54.6047 133.47 54.5787C133.423 54.5527 133.383 54.5155 133.354 54.4704C133.324 54.4253 133.307 54.3737 133.303 54.3202C133.299 54.2668 133.308 54.2132 133.331 54.1643C134.315 51.9443 134.205 50.9116 134.205 48.2185V39.3612C134.354 37.7706 133.959 36.1764 133.082 34.8347C133.05 34.7906 133.03 34.739 133.023 34.6848C133.017 34.6307 133.026 34.5759 133.047 34.5259C133.069 34.4758 133.104 34.4323 133.148 34.3995C133.192 34.3667 133.244 34.3458 133.298 34.3388C135.467 34.0765 137.578 33.4697 139.55 32.5419C139.599 32.5189 139.653 32.5085 139.708 32.5117C139.762 32.5149 139.814 32.5316 139.86 32.5602C139.906 32.5888 139.944 32.6284 139.97 32.6753C139.996 32.7222 140.01 32.7749 140.01 32.8285V39.8934C140.884 36.2541 142.872 31.9414 146.98 31.9414C149.598 31.9414 151.001 33.6201 151.001 35.508Z" fill="white"/>
  <path d="M44.3178 53.1681C35.8945 53.1681 28.3913 55.7702 28.3913 50.2748C28.3936 49.5325 28.6776 48.8182 29.1872 48.2731C30.1073 49.3422 32.4397 51.4576 38.4155 51.4576C46.5812 51.4576 50.4961 46.6218 50.4961 41.6176C50.4961 38.2194 48.472 34.6937 44.2994 33.0242C44.2396 33.0014 43.6692 32.8331 43.6416 32.8195C41.9741 32.251 40.2207 31.9679 38.457 31.9824C30.2499 31.9824 26.3764 36.8546 26.4638 41.6495C26.4538 43.7028 27.1334 45.7013 28.3959 47.3315C28.4879 47.4543 28.5891 47.568 28.6903 47.6863C22.8617 51.0254 24.182 60.4241 36.6536 58.6044C42.9837 57.6946 49.7509 56.6892 49.7509 62.6987C49.7509 66.8612 45.5645 69.5817 41.8152 69.5817C35.1493 69.5817 30.8157 64.8414 23.5655 60.4832C22.305 59.7326 20.9709 58.9911 19.508 58.2905C18.1811 57.6707 16.8076 57.1536 15.3998 56.7438C10.8363 55.379 6.95355 56.2889 3.61367 57.8128C7.29397 52.1718 24.2832 49.8517 24.2832 40.0709C24.2832 34.6573 18.8823 31.8823 12.7592 31.8823C7.6114 31.8823 2.7166 34.5891 2.7166 39.5341C2.7166 42.7186 5.01679 44.6065 7.6114 44.6065C8.48943 44.6114 9.34695 44.3441 10.0634 43.8422C10.0947 43.8204 10.1203 43.7914 10.1379 43.7578C10.1556 43.7241 10.1648 43.6868 10.1648 43.6489C10.1648 43.611 10.1556 43.5736 10.1379 43.54C10.1203 43.5063 10.0947 43.4774 10.0634 43.4555C8.60968 42.391 7.76321 40.4485 7.76321 38.0965C7.74244 37.3768 7.86994 36.6603 8.13798 35.9908C8.40602 35.3213 8.80899 34.7127 9.32238 34.2021C9.83576 33.6914 10.4488 33.2894 11.1243 33.0204C11.7998 32.7514 12.5235 32.6212 13.2515 32.6375C15.7587 32.6375 18.2705 34.3707 18.2705 38.1329C18.2705 48.9646 3.49866 51.6942 0.986854 59.9692C0.980497 59.9853 0.979787 60.003 0.984835 60.0196C0.989884 60.0362 1.0004 60.0506 1.01471 60.0605C1.02901 60.0705 1.04628 60.0754 1.06374 60.0745C1.08121 60.0736 1.09787 60.067 1.11106 60.0556C5.76665 56.9121 12.727 59.2822 17.5344 62.3848C17.6448 62.4576 17.7552 62.5213 17.8657 62.5895C26.6984 68.2033 34.6524 69.9547 41.1482 69.9547C48.3754 69.9547 52.3961 65.3281 52.3961 60.4014C52.3961 55.4746 49.0976 53.1681 44.3178 53.1681ZM38.5858 32.4373C42.5421 32.4373 44.4558 36.8956 44.4558 41.6085C44.4558 46.1942 42.4547 51.03 38.5858 51.03C34.6294 51.03 32.6053 46.4034 32.6053 41.6085C32.6283 37.0639 34.6294 32.4373 38.5858 32.4373Z" fill="white"/>
  <path d="M51.706 26.8507C51.3824 26.5908 50.9976 26.4162 50.5874 26.343C50.1772 26.2698 49.7549 26.3005 49.3599 26.4321C48.9534 26.5648 48.5875 26.797 48.2963 27.1073C48.005 27.4175 47.798 27.7956 47.6945 28.2063C47.4505 29.3356 46.8963 30.3765 46.0928 31.2144C45.2892 32.0523 44.2676 32.6548 43.1401 32.9557V33.0148L43.3058 33.306V33.3469C44.5374 33.272 45.7466 32.9873 46.8802 32.5053C48.0631 32.0286 49.1183 31.2877 49.9635 30.3407C50.8086 29.3937 51.4208 28.2661 51.752 27.0463C51.7667 27.0131 51.7701 26.9762 51.7618 26.9409C51.7535 26.9057 51.734 26.874 51.706 26.8507Z" fill="white"/>
  <path d="M11.5757 19.45C9.90903 19.45 8.48403 19.1583 7.3007 18.575C6.13403 17.9917 5.19236 17.2333 4.4757 16.3C3.75903 15.3667 3.23403 14.3583 2.9007 13.275C2.56736 12.175 2.4007 11.1167 2.4007 10.1V9.55C2.4007 8.45 2.56736 7.35 2.9007 6.25C3.2507 5.15 3.78403 4.15 4.5007 3.25C5.21736 2.35 6.1507 1.625 7.3007 1.075C8.4507 0.525 9.8257 0.25 11.4257 0.25C13.059 0.25 14.459 0.533334 15.6257 1.1C16.7924 1.66667 17.7174 2.45833 18.4007 3.475C19.084 4.49167 19.5007 5.69167 19.6507 7.075H17.1507C17.0174 6.04167 16.684 5.19167 16.1507 4.525C15.6174 3.84167 14.9424 3.33333 14.1257 3C13.3257 2.66667 12.4257 2.5 11.4257 2.5C10.3424 2.5 9.39236 2.69167 8.5757 3.075C7.75903 3.44167 7.0757 3.96667 6.5257 4.65C5.99236 5.31667 5.58403 6.09167 5.3007 6.975C5.03403 7.85833 4.9007 8.81667 4.9007 9.85C4.9007 10.8333 5.03403 11.7667 5.3007 12.65C5.58403 13.5333 6.0007 14.3167 6.5507 15C7.11736 15.6833 7.81736 16.225 8.6507 16.625C9.48403 17.0083 10.459 17.2 11.5757 17.2C13.1424 17.2 14.459 16.8083 15.5257 16.025C16.5924 15.2417 17.2424 14.1083 17.4757 12.625H19.9757C19.809 13.875 19.384 15.0167 18.7007 16.05C18.034 17.0833 17.1007 17.9083 15.9007 18.525C14.7174 19.1417 13.2757 19.45 11.5757 19.45Z" fill="#D91149"/>
  <path d="M29.3237 19.45C28.1571 19.45 27.1321 19.25 26.2487 18.85C25.3654 18.45 24.6154 17.925 23.9987 17.275C23.3987 16.6083 22.9404 15.8667 22.6237 15.05C22.3237 14.2333 22.1737 13.4 22.1737 12.55V12.1C22.1737 11.25 22.3321 10.4167 22.6487 9.6C22.9654 8.76667 23.4321 8.025 24.0487 7.375C24.6654 6.70833 25.4154 6.18333 26.2987 5.8C27.1821 5.4 28.1904 5.2 29.3237 5.2C30.4571 5.2 31.4654 5.4 32.3487 5.8C33.2321 6.18333 33.9821 6.70833 34.5987 7.375C35.2154 8.025 35.6821 8.76667 35.9987 9.6C36.3154 10.4167 36.4737 11.25 36.4737 12.1V12.55C36.4737 13.4 36.3154 14.2333 35.9987 15.05C35.6987 15.8667 35.2404 16.6083 34.6237 17.275C34.0237 17.925 33.2821 18.45 32.3987 18.85C31.5154 19.25 30.4904 19.45 29.3237 19.45ZM29.3237 17.3C30.3237 17.3 31.1737 17.0833 31.8737 16.65C32.5904 16.2 33.1321 15.6 33.4987 14.85C33.8821 14.1 34.0737 13.2583 34.0737 12.325C34.0737 11.375 33.8821 10.525 33.4987 9.775C33.1154 9.025 32.5654 8.43333 31.8487 8C31.1487 7.56667 30.3071 7.35 29.3237 7.35C28.3571 7.35 27.5154 7.56667 26.7987 8C26.0821 8.43333 25.5321 9.025 25.1487 9.775C24.7654 10.525 24.5737 11.375 24.5737 12.325C24.5737 13.2583 24.7571 14.1 25.1237 14.85C25.5071 15.6 26.0487 16.2 26.7487 16.65C27.4654 17.0833 28.3237 17.3 29.3237 17.3Z" fill="#D91149"/>
  <path d="M40.0683 19V5.65H41.9683V11.375H41.6683C41.6683 10.0583 41.8433 8.95 42.1933 8.05C42.5599 7.13333 43.1099 6.44167 43.8433 5.975C44.5766 5.49167 45.5016 5.25 46.6183 5.25H46.7183C48.4016 5.25 49.6433 5.775 50.4433 6.825C51.2599 7.875 51.6683 9.39167 51.6683 11.375V19H49.2683V10.875C49.2683 9.84167 48.9766 9.01667 48.3933 8.4C47.8099 7.76667 47.0099 7.45 45.9933 7.45C44.9433 7.45 44.0933 7.775 43.4433 8.425C42.7933 9.075 42.4683 9.94167 42.4683 11.025V19H40.0683Z" fill="#D91149"/>
  <path d="M60.4345 19.4C58.6845 19.4 57.3261 19.025 56.3595 18.275C55.4095 17.525 54.9178 16.5 54.8845 15.2H57.1345C57.1678 15.7167 57.4262 16.2083 57.9095 16.675C58.4095 17.125 59.2511 17.35 60.4345 17.35C61.5011 17.35 62.3178 17.1417 62.8845 16.725C63.4511 16.2917 63.7345 15.7667 63.7345 15.15C63.7345 14.6 63.5261 14.175 63.1095 13.875C62.6928 13.5583 62.0178 13.35 61.0845 13.25L59.6345 13.1C58.3678 12.9667 57.3345 12.5917 56.5345 11.975C55.7345 11.3417 55.3345 10.4583 55.3345 9.325C55.3345 8.475 55.5511 7.75 55.9845 7.15C56.4178 6.53333 57.0178 6.06667 57.7845 5.75C58.5512 5.41667 59.4345 5.25 60.4345 5.25C61.9345 5.25 63.1511 5.58333 64.0845 6.25C65.0178 6.91667 65.5012 7.90833 65.5345 9.225H63.2845C63.2678 8.69167 63.0178 8.24167 62.5345 7.875C62.0678 7.49167 61.3678 7.3 60.4345 7.3C59.5011 7.3 58.7928 7.49167 58.3095 7.875C57.8261 8.25833 57.5845 8.74167 57.5845 9.325C57.5845 9.825 57.7512 10.225 58.0845 10.525C58.4345 10.825 59.0012 11.0167 59.7845 11.1L61.2345 11.25C62.6678 11.4 63.8178 11.8 64.6845 12.45C65.5512 13.0833 65.9845 13.9833 65.9845 15.15C65.9845 15.9833 65.7428 16.725 65.2595 17.375C64.7928 18.0083 64.1428 18.5083 63.3095 18.875C62.4762 19.225 61.5178 19.4 60.4345 19.4Z" fill="#D91149"/>
  <path d="M74.0878 19.4C72.5045 19.4 71.2878 18.8833 70.4378 17.85C69.5878 16.8167 69.1628 15.325 69.1628 13.375V5.625H71.5628V13.85C71.5628 14.9 71.8461 15.725 72.4128 16.325C72.9795 16.9083 73.7461 17.2 74.7128 17.2C75.7128 17.2 76.5295 16.8833 77.1628 16.25C77.7961 15.6 78.1128 14.7167 78.1128 13.6V5.625H80.5128V19H78.6128V13.275H78.9128C78.9128 14.5917 78.7378 15.7083 78.3878 16.625C78.0378 17.525 77.5128 18.2167 76.8128 18.7C76.1295 19.1667 75.2545 19.4 74.1878 19.4H74.0878Z" fill="#D91149"/>
  <path d="M85.311 19V0.750001H87.711V19H85.311ZM83.461 2.65V0.750001H87.711V2.65H83.461Z" fill="#D91149"/>
  <path d="M97.5144 19.15C96.5144 19.15 95.6477 19.0083 94.9144 18.725C94.1977 18.4417 93.6394 17.9583 93.2394 17.275C92.856 16.575 92.6644 15.6333 92.6644 14.45V1.6H94.9644V14.75C94.9644 15.4667 95.156 16.025 95.5394 16.425C95.9394 16.8083 96.4977 17 97.2144 17H99.5644V19.15H97.5144ZM90.3644 7.45V5.65H99.5644V7.45H90.3644Z" fill="#D91149"/>
  <path d="M109.011 19.45C107.845 19.45 106.82 19.25 105.936 18.85C105.053 18.45 104.303 17.925 103.686 17.275C103.086 16.6083 102.628 15.8667 102.311 15.05C102.011 14.2333 101.861 13.4 101.861 12.55V12.1C101.861 11.25 102.02 10.4167 102.336 9.6C102.653 8.76667 103.12 8.025 103.736 7.375C104.353 6.70833 105.103 6.18333 105.986 5.8C106.87 5.4 107.878 5.2 109.011 5.2C110.145 5.2 111.153 5.4 112.036 5.8C112.92 6.18333 113.67 6.70833 114.286 7.375C114.903 8.025 115.37 8.76667 115.686 9.6C116.003 10.4167 116.161 11.25 116.161 12.1V12.55C116.161 13.4 116.003 14.2333 115.686 15.05C115.386 15.8667 114.928 16.6083 114.311 17.275C113.711 17.925 112.97 18.45 112.086 18.85C111.203 19.25 110.178 19.45 109.011 19.45ZM109.011 17.3C110.011 17.3 110.861 17.0833 111.561 16.65C112.278 16.2 112.82 15.6 113.186 14.85C113.57 14.1 113.761 13.2583 113.761 12.325C113.761 11.375 113.57 10.525 113.186 9.775C112.803 9.025 112.253 8.43333 111.536 8C110.836 7.56667 109.995 7.35 109.011 7.35C108.045 7.35 107.203 7.56667 106.486 8C105.77 8.43333 105.22 9.025 104.836 9.775C104.453 10.525 104.261 11.375 104.261 12.325C104.261 13.2583 104.445 14.1 104.811 14.85C105.195 15.6 105.736 16.2 106.436 16.65C107.153 17.0833 108.011 17.3 109.011 17.3Z" fill="#D91149"/>
  <path d="M119.756 19V5.65H121.656V11.15H121.556C121.556 9.2 121.981 7.775 122.831 6.875C123.697 5.95833 124.989 5.5 126.706 5.5H127.156V7.65H126.306C124.972 7.65 123.947 8.00833 123.231 8.725C122.514 9.425 122.156 10.4417 122.156 11.775V19H119.756Z" fill="#D91149"/>
  <path d="M130.66 19V5.65H133.06V19H130.66ZM128.61 7.55V5.65H133.06V7.55H128.61ZM131.335 3.5C130.801 3.5 130.401 3.35834 130.135 3.075C129.885 2.79167 129.76 2.43333 129.76 2C129.76 1.56667 129.885 1.20833 130.135 0.925C130.401 0.641668 130.801 0.500001 131.335 0.500001C131.868 0.500001 132.26 0.641668 132.51 0.925C132.776 1.20833 132.91 1.56667 132.91 2C132.91 2.43333 132.776 2.79167 132.51 3.075C132.26 3.35834 131.868 3.5 131.335 3.5Z" fill="#D91149"/>
  <path d="M145.775 19V15H145.375V10.375C145.375 9.45834 145.133 8.76667 144.65 8.3C144.183 7.83333 143.492 7.6 142.575 7.6C142.058 7.6 141.525 7.60833 140.975 7.625C140.425 7.64167 139.9 7.65833 139.4 7.675C138.9 7.69167 138.467 7.71667 138.1 7.75V5.65C138.467 5.61667 138.85 5.59167 139.25 5.575C139.667 5.54167 140.092 5.525 140.525 5.525C140.958 5.50833 141.375 5.5 141.775 5.5C143.142 5.5 144.258 5.66667 145.125 6C145.992 6.31667 146.633 6.84167 147.05 7.575C147.467 8.30833 147.675 9.3 147.675 10.55V19H145.775ZM141.4 19.35C140.4 19.35 139.533 19.1833 138.8 18.85C138.083 18.5 137.525 18 137.125 17.35C136.742 16.7 136.55 15.9167 136.55 15C136.55 14.05 136.758 13.2583 137.175 12.625C137.608 11.9917 138.233 11.5167 139.05 11.2C139.867 10.8667 140.85 10.7 142 10.7H145.625V12.5H141.9C140.933 12.5 140.192 12.7333 139.675 13.2C139.158 13.6667 138.9 14.2667 138.9 15C138.9 15.7333 139.158 16.325 139.675 16.775C140.192 17.225 140.933 17.45 141.9 17.45C142.467 17.45 143.008 17.35 143.525 17.15C144.042 16.9333 144.467 16.5833 144.8 16.1C145.15 15.6 145.342 14.9167 145.375 14.05L146.025 15C145.942 15.95 145.708 16.75 145.325 17.4C144.958 18.0333 144.442 18.5167 143.775 18.85C143.125 19.1833 142.333 19.35 141.4 19.35Z" fill="#D91149"/>
</svg>