<svg xmlns="http://www.w3.org/2000/svg" width="908" height="681" fill="none"><path stroke="#D91149" stroke-opacity=".25" stroke-width="2" d="m498.602 291.625-.734-.847-.758.825a54.058 54.058 0 0 0-14.257 36.731c.001 24.82 8.385 40.691 23.471 50.367 14.986 9.611 36.426 13 62.307 13.321 24.427.304 52.984-2.129 84.088-4.778l5.677-.484c33.33-2.829 69.455-5.736 106.593-5.736 42.104 0 77.595 10.307 102.546 31.563C892.46 433.822 907 466.1 907 510.342 907 597.658 836.514 680 709.377 680c-114.408 0-254.758-31.225-410.517-131.488l-.01-.006-.01-.006-6.006-3.668-.013-.008c-42.536-27.764-94.596-52.279-146.354-62.81-51.758-10.53-103.337-7.096-144.747 21.223l-.007.004-.007.005a.442.442 0 0 1-.515.001.445.445 0 0 1-.177-.481c11.027-36.797 35.503-67.482 66.135-95.865 22.64-20.977 48.574-40.639 74.859-60.568 9.302-7.051 18.647-14.137 27.907-21.325 70.747-54.928 136.34-115.81 136.34-213.169 0-33.806-11.136-58.641-27.942-75.024-16.795-16.371-39.177-24.228-61.542-24.228-47.797 0-97.929 34.348-97.929 98.528 0 42.48 14.791 77.309 40.692 96.516a3.353 3.353 0 0 1 .977 4.166c-.229.459-.56.86-.968 1.171a73.248 73.248 0 0 1-42.711 13.394h-.006c-45.247 0-85.374-33.449-85.374-89.582 0-43.863 21.395-77.77 54.124-100.748C118.33 13.037 162.436 1 207.723 1c53.938 0 104.623 12.472 141.791 36.914 37.134 24.421 60.778 60.783 60.778 108.709 0 43.352-18.618 78.464-47.646 108.358-29.047 29.915-68.483 54.565-110.016 76.947-19.133 10.31-38.691 20.129-57.872 29.758l-4.893 2.457c-20.731 10.413-40.937 20.633-59.553 31.029-37.193 20.769-68.21 42.328-84.417 67.71l-1.838 2.879 3.1-1.433c58.786-27.168 127.107-43.157 207.386-19.093l.007.002a482.362 482.362 0 0 1 72.23 27.601c25.778 12.482 49.332 25.751 71.57 39.145 31.983 19.427 60.749 39.279 87.765 58.141 2.597 1.813 5.177 3.617 7.743 5.41 24.121 16.862 46.938 32.811 69.494 46.773 49.926 30.905 98.683 52.144 157.847 52.144 33.343 0 68.592-12.231 95.519-33.833 26.939-21.612 45.597-52.649 45.597-90.238 0-27.111-7.531-46.466-20.712-59.916-13.16-13.431-31.832-20.849-53.876-24.347-43.911-6.969-101.699 1.555-157.372 9.768l-.501.073c-109.936 16.215-170.237-17.647-190.455-62.452-20.24-44.853-.608-101.25 50.504-130.868l1.125-.652-.918-.92c-1.772-1.774-3.49-3.79-5.095-5.932l-.006-.009a164.833 164.833 0 0 1-33.994-100.961v-.025c-.899-42.6 15.58-85.577 50.31-117.94 34.729-32.362 87.774-54.173 160.102-54.293h.007a271.461 271.461 0 0 1 91.165 14.921l.019.007.02.006.079.024c.543.162 3.052.916 5.601 1.695 1.356.415 2.721.837 3.805 1.18 1.12.356 1.863.604 2.043.682l.012.006.013.005c73.326 29.738 108.79 92.354 108.79 152.702 0 44.487-17.162 88.209-52.239 120.814-35.074 32.603-88.135 54.157-160.04 54.157-52.566 0-88.986-9.398-114.302-21.141-25.309-11.739-39.571-25.844-47.798-35.339Zm269.86-118.25c0-42.234-8.464-83.407-25.748-114.059-17.3-30.679-43.495-50.895-78.876-50.895-35.421 0-62.019 20.983-79.703 52.023-17.674 31.025-26.52 72.195-26.489 112.931 0 42.993 8.842 85.295 26.508 116.887 17.676 31.61 44.26 52.597 79.684 52.597 34.668 0 60.852-21.97 78.317-54.034 17.463-32.058 26.307-74.353 26.307-115.45Z"/></svg>