<svg xmlns="http://www.w3.org/2000/svg" width="90" height="90" viewBox="0 0 90 90" fill="none">
  <circle cx="45" cy="45" r="43.5" stroke="url(#paint0_linear_3_60)" stroke-width="3"/>
  <circle cx="45.1557" cy="44.844" r="31.199" stroke="url(#paint1_linear_3_60)" stroke-width="3"/>
  <path d="M55.3578 53.2214C55.3578 54.6747 54.98 55.9827 54.2243 57.1453C53.4686 58.2789 52.4222 59.1799 51.0852 59.8484C49.7772 60.5169 48.2513 60.8512 46.5073 60.8512C46.391 60.8512 46.3038 60.8657 46.2457 60.8948C46.1876 60.9529 46.1585 61.0256 46.1585 61.1128V64.1211C46.1585 64.3536 46.0568 64.4699 45.8533 64.4699H44.807C44.6035 64.4699 44.5018 64.3972 44.5018 64.2519V61.1128C44.5018 60.9965 44.4872 60.9239 44.4582 60.8948C44.4291 60.8657 44.371 60.8512 44.2838 60.8512C41.6969 60.8512 39.5897 60.4007 37.962 59.4996C36.3634 58.5986 35.0118 57.2616 33.9073 55.4886C33.7329 55.1979 33.762 54.9799 33.9945 54.8346L34.6921 54.3986C34.8083 54.3405 34.9391 54.3114 35.0845 54.3114C35.2298 54.3114 35.3315 54.355 35.3897 54.4422C36.4942 55.9246 37.7004 57.0581 39.0083 57.8429C40.3454 58.5986 42.0748 58.9765 44.1966 58.9765C44.4 58.9765 44.5018 58.8747 44.5018 58.6713V45.9841C44.5018 45.7225 44.4146 45.5045 44.2402 45.3301C44.0658 45.1266 43.8187 44.9522 43.499 44.8069C41.4063 43.8477 39.735 42.9758 38.4852 42.191C37.2353 41.3771 36.3343 40.4906 35.782 39.5315C35.2589 38.5723 34.9973 37.4097 34.9973 36.0436C34.9973 34.445 35.3897 33.0498 36.1744 31.8581C36.9592 30.6374 38.0346 29.6637 39.4007 28.937C40.7959 28.1813 42.38 27.7453 44.153 27.6291C44.2402 27.6291 44.3128 27.6 44.371 27.5419C44.4291 27.4837 44.4582 27.4111 44.4582 27.3239V24.8823C44.4582 24.7951 44.4727 24.7225 44.5018 24.6643C44.5599 24.6062 44.6326 24.5771 44.7198 24.5771H45.7661C45.9115 24.5771 45.9987 24.6207 46.0277 24.7079C46.0859 24.7661 46.1149 24.8678 46.1149 25.0131V27.3675C46.1149 27.5709 46.2167 27.6726 46.4201 27.6726C48.2222 27.818 49.7772 28.254 51.0852 28.9806C52.4222 29.6782 53.643 30.6228 54.7474 31.8145C54.98 32.047 54.98 32.2505 54.7474 32.4249L53.7447 33.1661C53.6284 33.2533 53.5412 33.2823 53.4831 33.2533C53.425 33.2242 53.3232 33.1225 53.1779 32.9481C52.4803 32.0761 51.5357 31.3495 50.344 30.7682C49.1814 30.1578 47.9025 29.7654 46.5073 29.591C46.362 29.5619 46.2603 29.5765 46.2021 29.6346C46.144 29.6927 46.1149 29.7944 46.1149 29.9398V43.1066C46.1149 43.3972 46.2748 43.6152 46.5945 43.7605L47.7717 44.2837C49.4284 44.9813 50.8236 45.7661 51.9571 46.638C53.0907 47.481 53.9336 48.4401 54.4859 49.5156C55.0672 50.591 55.3578 51.8263 55.3578 53.2214ZM44.4582 29.8526C44.4582 29.591 44.3128 29.4893 44.0222 29.5474C41.9876 29.7218 40.3308 30.4048 39.0519 31.5965C37.7731 32.7882 37.1336 34.2851 37.1336 36.0872C37.1336 36.901 37.3225 37.6713 37.7004 38.3979C38.0782 39.0955 38.7322 39.7931 39.6623 40.4906C40.6215 41.1592 41.9295 41.8713 43.5862 42.627C43.8187 42.7432 44.0222 42.7723 44.1966 42.7142C44.371 42.627 44.4582 42.438 44.4582 42.1474V29.8526ZM46.1585 58.7149C46.1585 58.8893 46.2603 58.9765 46.4637 58.9765C48.5274 58.9765 50.1696 58.4097 51.3904 57.2761C52.6111 56.1425 53.2215 54.7329 53.2215 53.047C53.2215 51.4775 52.7274 50.1841 51.7391 49.1668C50.7509 48.1204 49.1378 47.1176 46.8997 46.1585C46.6962 46.0713 46.5218 46.0567 46.3765 46.1149C46.2312 46.1439 46.1585 46.2747 46.1585 46.5073V58.7149Z" fill="url(#paint2_linear_3_60)"/>
  <defs>
    <linearGradient id="paint0_linear_3_60" x1="51.2284" y1="52.3183" x2="33.7889" y2="86.7301" gradientUnits="userSpaceOnUse">
      <stop offset="0.184714" stop-color="#D91149"/>
      <stop offset="1" stop-color="#D91149" stop-opacity="0"/>
    </linearGradient>
    <linearGradient id="paint1_linear_3_60" x1="59.9481" y1="31.2973" x2="66.7993" y2="24.1346" gradientUnits="userSpaceOnUse">
      <stop stop-color="#4F1941"/>
      <stop offset="1" stop-color="#4F1941" stop-opacity="0"/>
    </linearGradient>
    <linearGradient id="paint2_linear_3_60" x1="55.4326" y1="24.6021" x2="44.5329" y2="62.5952" gradientUnits="userSpaceOnUse">
      <stop offset="0.190736" stop-color="#D91149"/>
      <stop offset="1" stop-color="#D91149" stop-opacity="0"/>
    </linearGradient>
  </defs>
</svg>