<svg xmlns="http://www.w3.org/2000/svg" width="81" height="80" viewBox="0 0 81 80" fill="none">
  <g clip-path="url(#clip0_1_44)">
    <path d="M13.4048 11.5971C13.414 11.3766 13.4669 11.16 13.5604 10.96C13.6539 10.7601 13.7861 10.5806 13.9494 10.4321C14.0724 10.312 14.2206 10.2207 14.3832 10.1649C14.5459 10.1091 14.7189 10.0901 14.8897 10.1093C15.0606 10.1285 15.225 10.1855 15.3712 10.276C15.5174 10.3666 15.6416 10.4885 15.7349 10.6329C16.333 11.3159 16.6276 12.2979 16.3509 15.5163L16.583 15.7797L19.4443 13.3023H19.4711L19.0247 12.222L16.7928 14.1638C17.2392 11.798 17.3061 10.5213 16.6187 9.73124C16.4763 9.56226 16.2995 9.42551 16.1002 9.33008C15.9009 9.23464 15.6835 9.18271 15.4626 9.17773H15.4269C14.8996 9.20294 14.399 9.41681 14.0163 9.78035C13.4813 10.2431 13.1167 10.8717 12.9807 11.5659V11.615L13.4271 11.6819L13.4048 11.5971Z" fill="white"/>
    <path d="M24.7919 7.00855L25.7828 8.95476C25.6522 9.08747 25.5016 9.19893 25.3365 9.28508C25.0654 9.41592 24.7643 9.47169 24.4644 9.44656C24.1645 9.42144 23.8768 9.31635 23.6313 9.14224C22.9888 8.70055 22.4745 8.0969 22.1404 7.39244C21.4619 6.08455 21.5512 5.09359 22.3904 4.53561C22.6988 4.50833 23.0095 4.52184 23.3144 4.57579C23.4417 4.59087 23.5708 4.57642 23.6916 4.53356C23.8125 4.49069 23.9218 4.42056 24.0112 4.32861C24.1006 4.23665 24.1675 4.12535 24.2069 4.00333C24.2463 3.88131 24.2571 3.75185 24.2384 3.625H24.1982C23.5621 3.67584 22.9419 3.85021 22.3725 4.13834C22.0125 4.32334 21.6971 4.58446 21.4481 4.90358C21.1991 5.2227 21.0226 5.59216 20.9307 5.98634C20.75 6.78315 20.8576 7.6182 21.2342 8.34322C21.4838 8.85773 21.8677 9.29526 22.3455 9.60955C22.8232 9.92385 23.3769 10.1032 23.9482 10.1287C24.3994 10.1237 24.8429 10.012 25.2427 9.80288C25.9032 9.4506 26.4394 8.90358 26.7783 8.23609L25.8855 6.45058L24.7919 7.00855Z" fill="white"/>
    <path d="M33.773 6.75786L35.0363 6.46325L31.7152 0.99065V0.963867L30.8224 1.1692L30.1931 7.5301V7.59259L30.6394 7.48992V7.45421C30.6394 7.26227 30.7019 6.42308 30.7733 5.57496L32.7954 5.10626L33.7641 6.73108L33.773 6.75786ZM32.5812 4.76701L30.7957 5.18215L31.0724 2.24497L32.5812 4.76701Z" fill="white"/>
    <path d="M37.5761 0.0627738H37.5315V0.473442H37.5806C37.7234 0.473442 38.7814 0.419877 39.1742 0.410949L39.2545 6.10674V6.16031H40.4865L40.4062 0.42434C40.7499 0.42434 41.5757 0.42434 41.8971 0.42434H42.0533V0.0136719L37.5761 0.0627738Z" fill="white"/>
    <path d="M50.6774 1.39695L50.0302 4.10647L47.6867 3.54849L48.3384 0.834511L47.1867 0.557756L47.1421 0.548828L45.7226 6.4812L46.8743 6.75796L46.9189 6.76688L47.6018 3.91006L49.9409 4.46803L49.2579 7.32932L50.4096 7.60608L50.4542 7.615L51.8737 1.68263L50.722 1.40588L50.6774 1.39695Z" fill="white"/>
    <path d="M57.1052 3.70926L54.3154 9.09259V9.13276L57.5338 10.8022H57.5784L57.7659 10.4407L57.7212 10.4183C57.6007 10.3603 56.4625 9.81126 56.1812 9.66395L55.5742 9.35149L56.7615 7.06603L57.0918 7.24012C57.3195 7.35618 58.4533 7.95432 58.6051 8.0436H58.6452L58.8372 7.67757H58.7925C58.6363 7.60615 57.4891 7.02586 57.2659 6.9098L56.9311 6.73571L58.0426 4.58863L58.614 4.88324C58.9086 5.03501 60.1094 5.70011 60.1228 5.70904H60.1629L60.3504 5.34301L57.1633 3.69141L57.1052 3.70926Z" fill="white"/>
    <path d="M61.6717 13.7488L63.4304 11.7C63.5554 11.8339 63.7072 11.9901 63.8768 12.1776L63.1939 15.0344V15.088L64.1848 15.9406L64.2428 15.9941L64.9035 12.8248C65.2305 12.9681 65.5943 13.0051 65.9434 12.9306C66.2926 12.8561 66.6096 12.6739 66.8497 12.4097C67.0021 12.2361 67.1133 12.0303 67.1752 11.8077C67.237 11.5851 67.2478 11.3515 67.2068 11.1241C67.086 10.5629 66.7696 10.063 66.314 9.71358L64.7472 8.37444L64.716 8.34766L60.7656 12.9498L60.7388 12.9855L61.6315 13.7533L61.6717 13.7488ZM65.6891 9.63769C65.84 9.74713 65.9654 9.88796 66.0567 10.0505C66.1479 10.2131 66.2029 10.3934 66.2177 10.5793C66.2326 10.7651 66.207 10.9519 66.1427 11.1269C66.0784 11.3019 65.977 11.4608 65.8453 11.5928C65.6932 11.8088 65.4826 11.9768 65.2383 12.0772C64.994 12.1776 64.7261 12.2063 64.466 12.1597C64.3776 12.0943 64.2927 12.0243 64.2116 11.9499C64.0152 11.7758 63.8232 11.6018 63.6715 11.45L65.4257 9.40557L65.6891 9.63769Z" fill="white"/>
    <path d="M7.19564 31.7907L7.35188 31.1658L1.96408 27.5947L1.85249 28.0411H1.88374C2.04443 28.1304 2.68275 28.5232 3.47731 29.0365L2.94612 31.1568L1.05794 31.2997H1.02669L0.785645 32.2862L7.17333 31.7907H7.19564ZM3.34339 31.1256L3.81209 29.2865L3.86566 29.3222L6.28503 30.9024L3.34339 31.1256Z" fill="white"/>
    <path d="M2.60686 41.4914H2.6515L2.67382 40.5718V40.5317L0.557982 40.487C0.47542 40.2661 0.438961 40.0307 0.450851 39.7951C0.477634 38.4962 1.65161 37.6659 3.45052 37.6659H3.5755C5.08873 37.6972 5.90114 38.2953 6.0038 39.4514C5.88672 39.7639 5.7371 40.0631 5.55742 40.3442C5.50081 40.4394 5.46587 40.5459 5.45507 40.6562C5.44428 40.7665 5.4579 40.8777 5.49498 40.9821C5.53205 41.0865 5.59166 41.1815 5.66957 41.2602C5.74748 41.339 5.84178 41.3996 5.94577 41.4378V41.4021C6.18806 40.8368 6.32279 40.2313 6.34305 39.6166C6.3743 38.0498 4.9682 36.7419 3.2184 36.7062H3.14251C2.35133 36.6986 1.58347 36.9741 0.977578 37.4829C0.679696 37.7319 0.438106 38.0413 0.268807 38.3907C0.0995088 38.74 0.00636519 39.1214 -0.00445557 39.5095C0.0045892 40.1992 0.229364 40.8689 0.63833 41.4244L2.60686 41.4914Z" fill="white"/>
    <path d="M8.03926 46.3341L8.6017 46.5706L8.42761 46.7537C8.28473 46.9008 8.17995 47.0805 8.12238 47.2774C8.06481 47.4742 8.0562 47.6821 8.09729 47.883L8.15086 48.133L8.86953 47.3607C8.95372 47.2714 9.01513 47.1631 9.04854 47.045C9.08196 46.9269 9.08639 46.8024 9.06147 46.6822C9.0445 46.6001 9.00863 46.5231 8.95672 46.4572C8.90481 46.3914 8.83828 46.3385 8.7624 46.3028L7.66431 45.7939L7.68663 45.9011C7.70611 45.9963 7.74836 46.0855 7.80976 46.1609C7.87117 46.2363 7.94991 46.2957 8.03926 46.3341Z" fill="white"/>
    <path d="M1.36591 48.2353L1.232 47.4943L3.74958 46.9721L3.83885 47.4184C3.89688 47.6997 4.13346 48.8602 4.17364 49.1057V49.1504L4.57538 49.0656V49.0209C4.51735 48.7799 4.26291 47.6059 4.20935 47.3426L4.12007 46.8962L6.49034 46.4007L6.63765 47.1015C6.70907 47.4452 6.9144 48.5567 6.95458 48.7888V48.8335L7.35185 48.7531L6.64657 45.374L0.709738 46.615H0.6651L1.37931 50.0298L1.77658 49.9449V49.9003C1.67838 49.6771 1.43734 48.5656 1.36591 48.2353Z" fill="white"/>
    <path d="M10.1105 55.806L10.0658 55.8283C9.95868 55.8818 8.49903 56.6005 7.58841 57.0201L5.77165 57.8548L8.72668 52.8152L8.441 52.1992L2.89697 54.7614L3.07106 55.1319L3.11123 55.1096C3.20051 55.065 4.69142 54.3374 5.5931 53.9222L7.37862 53.0964L4.45483 58.1003L4.74052 58.7208L10.2845 56.1631L10.1105 55.806Z" fill="white"/>
    <path d="M13.8913 62.4972C13.9096 62.6067 13.9518 62.7109 14.0147 62.8024C14.0777 62.8938 14.16 62.9703 14.2558 63.0265C14.3516 63.0827 14.4585 63.1172 14.5691 63.1276C14.6796 63.1379 14.7911 63.1239 14.8957 63.0864V63.0462C14.7218 62.4606 14.4403 61.9126 14.0654 61.4303C13.82 61.1277 13.5116 60.8822 13.1615 60.7111C12.8115 60.5399 12.4284 60.4472 12.0388 60.4394C11.2293 60.4208 10.4392 60.6879 9.80694 61.1938C9.16704 61.6944 8.72952 62.4093 8.57494 63.2069C8.49717 63.5772 8.50122 63.96 8.58681 64.3285C8.67239 64.6971 8.83744 65.0425 9.07042 65.3406C9.31922 65.6438 9.63282 65.8875 9.98816 66.0535C10.3435 66.2196 10.7315 66.304 11.1238 66.3003H11.3693H11.4139V65.8941H11.3648C11.0544 65.9603 10.7318 65.9395 10.4324 65.8339C10.1331 65.7284 9.86879 65.5422 9.66857 65.296C8.8874 64.3184 9.31593 62.8587 10.7042 61.7517C11.9272 60.7786 12.9137 60.7117 13.7217 61.5419C13.8108 61.8537 13.8677 62.1738 13.8913 62.4972Z" fill="white"/>
    <path d="M17.8252 65.9704L13.856 70.6113L14.5922 71.2409L18.5614 66.6L17.8252 65.9704Z" fill="white"/>
    <path d="M18.547 73.7018L18.4979 73.742L18.8907 73.9652L18.9175 73.9384C19.038 73.8089 19.5603 73.3179 20.2924 72.6484L22.1761 73.7018L21.8234 75.5677V75.6034L22.7162 76.0989L23.8902 69.7915V69.7603L23.3233 69.4434L18.547 73.7018ZM20.5914 72.385C20.6099 72.3725 20.6264 72.3575 20.6405 72.3404L22.7966 70.4075L22.252 73.3135L20.5914 72.385Z" fill="white"/>
    <path d="M35.4023 73.6127L33.8846 73.4297L33.157 79.4513V79.5004L35.0541 79.7281C35.188 79.7281 35.3219 79.7504 35.4514 79.7504C36.2063 79.7487 36.9325 79.4608 37.4834 78.9447C38.0343 78.4285 38.3689 77.7227 38.4198 76.9695C38.4814 76.5621 38.4508 76.1461 38.3303 75.7521C38.2098 75.3581 38.0024 74.9962 37.7234 74.6929C37.1043 74.0662 36.2805 73.6828 35.4023 73.6127ZM34.7997 73.9118L35.3666 73.9787C36.4557 74.1126 37.6342 74.9876 37.3887 77.032C37.2146 78.4738 36.4959 79.2639 35.3532 79.3888L34.1613 79.246L34.7997 73.9118Z" fill="white"/>
    <path d="M46.5484 79.2192C46.3073 79.2549 45.2092 79.4023 44.8432 79.4424L44.0977 79.5272L43.8121 76.9695L44.2584 76.9204L45.9636 76.7463H46.0127L45.9636 76.3401H45.919C45.669 76.3758 44.4727 76.5186 44.2138 76.5499L43.7674 76.599L43.4996 74.193L44.2093 74.1127C44.5441 74.0725 45.669 73.9743 45.919 73.9564H45.9681L45.9234 73.5547L42.5399 73.9297H42.4952L43.1916 79.9558V80.0004L46.6109 79.621H46.6555L46.6109 79.2148L46.5484 79.2192Z" fill="white"/>
    <path d="M57.9534 69.5945H57.9935L57.8061 69.2285L54.0297 71.1792H53.985L54.1725 71.5408L54.2127 71.5184L55.6545 70.7373L58.2614 75.7948V75.8349L59.1229 75.3885L56.4982 70.2909L57.9534 69.5945Z" fill="white"/>
    <path d="M64.8588 65.926C64.7276 65.7647 64.5641 65.6326 64.3788 65.538C64.1936 65.4435 63.9907 65.3886 63.7831 65.377H63.725C63.0879 65.4275 62.4889 65.7009 62.0333 66.1492L60.7432 67.2428L64.6714 71.8628L64.6981 71.8985L65.4391 71.2692L63.6536 69.198C63.917 69.0239 64.1536 68.8542 64.3589 68.698L67.1086 69.8006H67.1354L67.979 69.0819L64.9927 67.9347C65.18 67.6268 65.2676 67.2687 65.2436 66.9092C65.2196 66.5496 65.0853 66.2063 64.8588 65.926ZM64.3634 68.207C64.2964 68.2739 64.2116 68.3498 64.1178 68.4346C63.9259 68.5953 63.6715 68.7873 63.4393 68.9614L61.7029 66.9214L62.0288 66.6447C62.2867 66.4043 62.6016 66.2338 62.9439 66.1492C63.1672 66.1137 63.3959 66.1408 63.6047 66.2275C63.8135 66.3142 63.9942 66.457 64.1268 66.6402C64.3278 66.8422 64.4591 67.1031 64.5017 67.3849C64.5442 67.6666 64.4958 67.9546 64.3634 68.207Z" fill="white"/>
    <path d="M66.9389 58.833L66.6934 58.9669C66.501 59.0769 66.3543 59.2521 66.2798 59.4609C66.2053 59.6697 66.2079 59.8982 66.2872 60.1052L66.4881 60.623C66.5783 60.5716 66.6549 60.4995 66.7116 60.4125C66.7683 60.3255 66.8034 60.2263 66.814 60.123L66.9389 58.833Z" fill="white"/>
    <path d="M67.7425 60.1406L67.3541 60.6584L70.9564 66.015L71.2287 65.6579L71.2064 65.6266C71.0948 65.4882 70.6752 64.9035 70.1172 64.0911L71.4117 62.3725L73.1972 62.9707H73.2285L73.8445 62.1583L67.7425 60.1719V60.1406ZM71.0368 62.2431L69.8806 63.7429L69.8405 63.6893L68.2201 61.2968L71.0368 62.2431Z" fill="white"/>
    <path d="M74.1391 55.4533C74.2551 55.1989 74.7551 54.1142 74.8622 53.8955V53.8553L74.4917 53.6857V53.7303C74.398 53.958 73.9203 55.0337 73.7998 55.2971L73.6213 55.6988L71.4161 54.7034L71.7108 54.0517C71.8536 53.7348 72.3446 52.7126 72.4473 52.5028L72.4696 52.4581L72.0991 52.293L70.6796 55.4176L76.1969 57.9397H76.237L76.6388 57.0469L73.9605 55.8372L74.1391 55.4533Z" fill="white"/>
    <path d="M79.5581 46.553C79.5135 46.803 79.2992 47.8922 79.2233 48.2403L79.0671 48.9769L76.5495 48.4323L76.6388 47.9859C76.7057 47.6957 76.9646 46.5486 77.0227 46.312V46.2629L76.6209 46.1781V46.2272C76.5718 46.4771 76.3263 47.6511 76.2683 47.91L76.1745 48.3564L73.8087 47.8386L73.9605 47.1422C74.0364 46.7985 74.2998 45.696 74.3578 45.4683V45.4237L73.9605 45.3389L73.2329 48.6644V48.709L79.1608 49.9991H79.2055L79.942 46.6334V46.5887L79.5447 46.5039L79.5581 46.553Z" fill="white"/>
    <path d="M77.8975 37.2012V38.1653H80.0134C80.0967 38.3849 80.1391 38.6179 80.1384 38.8528C80.1436 39.1699 80.0691 39.4832 79.9217 39.764C79.7743 40.0448 79.5587 40.284 79.2947 40.4597C78.6302 40.8849 77.851 41.0953 77.0628 41.0623H77.0226C75.5407 41.0623 74.7193 40.491 74.5943 39.3706C74.7006 39.0575 74.8429 38.7579 75.0184 38.4778C75.0699 38.3824 75.1004 38.2771 75.1078 38.1689C75.1152 38.0608 75.0993 37.9523 75.0612 37.8508C75.0232 37.7493 74.9638 37.6571 74.8871 37.5804C74.8104 37.5038 74.7182 37.4445 74.6167 37.4065V37.4467C74.3956 38.0163 74.2792 38.6212 74.2729 39.2322C74.2773 39.6215 74.3675 40.005 74.5373 40.3553C74.7071 40.7057 74.9521 41.0141 75.255 41.2588C75.8745 41.7729 76.6551 42.0526 77.4601 42.0488H77.4824C79.2233 42.0488 80.6294 40.741 80.6071 39.1608C80.5963 38.4578 80.353 37.7781 79.9152 37.228H77.969L77.8975 37.2012Z" fill="white"/>
    <path d="M76.0049 33.0726C76.3063 33.074 76.6066 33.035 76.8977 32.9565C78.5582 32.5102 79.6295 30.9121 79.2411 29.4525C78.8528 27.9928 77.1164 27.1402 75.4648 27.5866C73.8132 28.033 72.7196 29.6355 73.1079 31.0996C73.4248 32.278 74.6524 33.0726 76.0049 33.0726ZM76.0049 28.4615C77.4155 28.0865 78.4912 28.4347 78.884 29.3989C79.0626 30.5505 78.0672 31.6308 76.4022 32.0772C74.9693 32.4521 73.9158 32.1307 73.5096 31.1844C73.3177 30.0283 74.3667 28.89 75.9826 28.4794L76.0049 28.4615Z" fill="white"/>
    <path d="M8.86507 20.9081C9.08941 20.9081 9.27127 20.7262 9.27127 20.5019C9.27127 20.2776 9.08941 20.0957 8.86507 20.0957C8.64073 20.0957 8.45886 20.2776 8.45886 20.5019C8.45886 20.7262 8.64073 20.9081 8.86507 20.9081Z" fill="white"/>
    <path d="M71.733 20.9081C71.9574 20.9081 72.1393 20.7262 72.1393 20.5019C72.1393 20.2776 71.9574 20.0957 71.733 20.0957C71.5087 20.0957 71.3268 20.2776 71.3268 20.5019C71.3268 20.7262 71.5087 20.9081 71.733 20.9081Z" fill="white"/>
    <path d="M50.5166 42.8877C45.6333 42.8877 41.2855 44.4143 41.2855 41.1915C41.2835 40.7583 41.4426 40.3399 41.7319 40.0175C42.281 40.6469 43.6201 41.8833 47.0885 41.8833C51.8245 41.8833 54.0921 39.0488 54.0921 36.1117C54.0747 35.007 53.7216 33.9337 53.0798 33.0344C52.438 32.135 51.5378 31.4522 50.4988 31.0765L50.1194 30.956C49.1516 30.6228 48.1342 30.4567 47.1108 30.465C42.3524 30.465 40.1116 33.3263 40.1607 36.1385C40.1553 37.3419 40.5494 38.513 41.2811 39.4684C41.3346 39.5399 41.3927 39.6068 41.4507 39.6782C38.0716 41.6334 38.8349 47.1417 46.0662 46.0748C49.7355 45.5347 53.6547 44.9544 53.6547 48.4853C53.6547 50.927 51.2309 52.5027 49.057 52.5027C45.1913 52.5027 42.6782 49.7218 38.4733 47.1819C37.7457 46.7355 36.969 46.2891 36.1254 45.8918C35.3549 45.5336 34.558 45.2352 33.7417 44.9991C31.4686 44.3268 29.0241 44.552 26.9121 45.6285C29.0458 42.3163 38.9063 40.9772 38.9063 35.2323C38.9063 32.063 35.7817 30.4248 32.2107 30.4248C29.2244 30.4248 26.4077 32.0139 26.4077 34.8886C26.3851 35.2734 26.4418 35.6588 26.5743 36.0208C26.7069 36.3828 26.9125 36.7137 27.1783 36.9929C27.4441 37.2722 27.7645 37.4937 28.1195 37.6439C28.4746 37.7941 28.8567 37.8697 29.2422 37.8659C29.7519 37.8697 30.2499 37.7136 30.6662 37.4196C30.6846 37.4068 30.6996 37.3898 30.71 37.37C30.7204 37.3502 30.7259 37.3281 30.7259 37.3057C30.7259 37.2833 30.7204 37.2613 30.71 37.2415C30.6996 37.2216 30.6846 37.2046 30.6662 37.1919C29.827 36.5714 29.327 35.4332 29.327 34.0673C29.3167 33.6456 29.3919 33.2263 29.5479 32.8345C29.704 32.4427 29.9378 32.0866 30.2351 31.7875C30.5325 31.4885 30.8873 31.2527 31.2782 31.0945C31.6692 30.9362 32.0881 30.8588 32.5097 30.8667C33.9649 30.8667 35.4201 31.8845 35.4201 34.0896C35.4201 40.4415 26.8586 42.0396 25.4034 46.9006C25.3999 46.91 25.3996 46.9202 25.4026 46.9297C25.4056 46.9393 25.4116 46.9475 25.4199 46.9532C25.4281 46.9588 25.438 46.9615 25.4479 46.9609C25.4579 46.9603 25.4673 46.9564 25.4748 46.9497C28.1531 45.1062 32.2062 46.5034 34.9916 48.3157L35.188 48.4362C40.308 51.726 44.9191 52.7527 48.682 52.7527C52.8735 52.7527 55.2036 50.0387 55.2036 47.1551C55.2036 44.2715 53.2931 42.8877 50.5166 42.8877ZM47.209 30.7373C49.5034 30.7373 50.6104 33.3486 50.6104 36.0938C50.6104 38.7721 49.4543 41.62 47.209 41.62C44.9637 41.62 43.7585 38.906 43.7585 36.0938C43.7451 33.4468 44.9012 30.7373 47.209 30.7373Z" fill="white"/>
    <path d="M54.7974 27.4616C54.6127 27.3117 54.3932 27.2107 54.1592 27.1678C53.9252 27.1249 53.6842 27.1415 53.4583 27.2161C53.2222 27.2928 53.0097 27.4286 52.8409 27.6107C52.6722 27.7927 52.5528 28.0149 52.4941 28.2561C52.351 28.9179 52.0289 29.5277 51.5629 30.0189C51.0969 30.5101 50.5049 30.8638 49.8516 31.0415V31.0728L49.9453 31.2424C50.6587 31.1984 51.3593 31.0323 52.0165 30.7514C52.6967 30.4743 53.3043 30.045 53.7926 29.4963C54.2809 28.9477 54.6369 28.2943 54.8332 27.5866C54.8445 27.5652 54.8471 27.5402 54.8405 27.5169C54.8338 27.4936 54.8184 27.4738 54.7974 27.4616Z" fill="white"/>
  </g>
  <defs>
    <clipPath id="clip0_1_44">
      <rect width="80.6026" height="80" fill="white"/>
    </clipPath>
  </defs>
</svg>